:FULLY-SPECIFIED
:FORCE-ALL-JOINTS-BE-3DOF
:DEGREES
204
root 4.75426 15.1145 -25.3786 7.04569 -1.56265 6.55915
lfemur 11.7419 -13.141 4.62063
ltibia -1.01241 0 0
lfoot -33.667 -19.7178 0
ltoes 62.5529 0 0
rfemur -29.517 -18.676 -9.93888
rtibia 49.4005 0 0
rfoot -29.0109 17.3465 0
rtoes 59.1912 0 0
lowerback -3.14323 -1.8055 -1.28051
upperback -0.693328 -2.34233 -8.35448
thorax 0.716458 -1.18776 -8.06825
lowerneck -11.4982 0.567528 6.27365
upperneck 3.93434 -0.336174 2.99407
head 3.31165 0.0652912 -0.152526
lclavicle 2.39922e-14 1.06607e-14 0
lhumerus -59.0829 -45.3659 114.544
lradius 54.214 0 0
lwrist 25.2936 0 0
lhand 41.9343 31.6404 0
lfingers 7.12502 0 0
lthumb 64.2507 42.3089 0
rclavicle 2.39922e-14 1.06607e-14 0
rhumerus -18.4517 -4.71307 -21.3991
rradius 85.1939 0 0
rwrist -21.3093 0 0
rhand -34.4882 -46.0194 0
rfingers 7.12502 0 0
rthumb -7.45886 -525.872 0
205
root 4.7515 15.0987 -25.3975 7.06831 -1.56242 6.4971
lfemur 11.358 -12.3179 4.19408
ltibia -0.312197 0 0
lfoot -34.1357 -18.5657 0
ltoes 61.5502 0 0
rfemur -30.0755 -18.9453 -9.70841
rtibia 50.0752 0 0
rfoot -28.4991 17.549 0
rtoes 59.3147 0 0
lowerback -2.94627 -1.80154 -1.25756
upperback -0.692149 -2.34671 -8.27473
thorax 0.615161 -1.19092 -7.98671
lowerneck -11.3641 0.609984 6.40232
upperneck 3.87121 -0.284129 2.89671
head 3.26849 0.0860172 -0.202351
lclavicle 1.95218e-14 1.18228e-14 0
lhumerus -59.2426 -45.521 114.808
lradius 54.2386 0 0
lwrist 25.47 0 0
lhand 41.5931 31.4774 0
lfingers 7.12502 0 0
lthumb 63.9606 42.4619 0
rclavicle 1.95218e-14 1.18228e-14 0
rhumerus -16.648 -9.28285 -19.8319
rradius 82.27 0 0
rwrist -21.2887 0 0
rhand -39.1649 -49.3418 0
rfingers 7.12502 0 0
rthumb -11.9302 -538.526 0
206
root 4.74944 15.0848 -25.4181 7.10846 -1.50252 6.37968
lfemur 10.7801 -11.3221 3.77223
ltibia 0.598511 0 0
lfoot -34.5032 -17.3478 0
ltoes 60.2283 0 0
rfemur -30.5954 -19.2186 -9.41755
rtibia 50.6721 0 0
rfoot -28.0349 17.7048 0
rtoes 59.4365 0 0
lowerback -2.73695 -1.79709 -1.21904
upperback -0.690508 -2.35001 -8.15329
thorax 0.50851 -1.19347 -7.87042
lowerneck -11.2379 0.648115 6.50397
upperneck 3.79709 -0.233603 2.78996
head 3.22271 0.105223 -0.250606
lclavicle 1.52331e-14 1.28168e-14 0
lhumerus -59.3757 -45.6411 115.091
lradius 54.293 0 0
lwrist 25.6132 0 0
lhand 41.1343 31.2491 0
lfingers 7.12502 0 0
lthumb 63.563 42.6064 0
rclavicle 1.52331e-14 1.28168e-14 0
rhumerus -14.9722 -13.6596 -18.5277
rradius 79.5679 0 0
rwrist -21.3219 0 0
rhand -43.2838 -52.4558 0
rfingers 7.12502 0 0
rthumb -15.88 -551.775 0
207
root 4.74743 15.0728 -25.4403 7.16987 -1.3882 6.20171
lfemur 9.99993 -10.154 3.36785
ltibia 1.72643 0 0
lfoot -34.7636 -16.0752 0
ltoes 58.5697 0 0
rfemur -31.0715 -19.5015 -9.06133
rtibia 51.171 0 0
rfoot -27.644 17.8249 0
rtoes 59.563 0 0
lowerback -2.51678 -1.79071 -1.16285
upperback -0.68867 -2.35015 -7.98739
thorax 0.397075 -1.19439 -7.71788
lowerneck -11.1223 0.684498 6.57747
upperneck 3.71179 -0.18099 2.6721
head 3.17455 0.124663 -0.297471
lclavicle 1.12315e-14 1.36157e-14 0
lhumerus -59.4814 -45.7221 115.391
lradius 54.382 0 0
lwrist 25.7216 0 0
lhand 40.5456 30.9489 0
lfingers 7.12502 0 0
lthumb 63.0463 42.7401 0
rclavicle 1.12315e-14 1.36157e-14 0
rhumerus -13.4403 -17.7845 -17.5076
rradius 77.1344 0 0
rwrist -21.4239 0 0
rhand -46.7347 -55.3092 0
rfingers 7.12502 0 0
rthumb -19.2048 -565.66 0
208
root 4.74479 15.0626 -25.4641 7.2563 -1.22468 5.95803
lfemur 9.00899 -8.81392 2.99371
ltibia 3.07829 0 0
lfoot -34.9109 -14.7588 0
ltoes 56.5569 0 0
rfemur -31.4987 -19.7996 -8.63476
rtibia 51.5518 0 0
rfoot -27.3526 17.92 0
rtoes 59.7003 0 0
lowerback -2.28724 -1.78096 -1.08689
upperback -0.686902 -2.34505 -7.77428
thorax 0.281426 -1.19262 -7.52757
lowerneck -11.0202 0.72171 6.62172
upperneck 3.61512 -0.122679 2.5414
head 3.12421 0.146089 -0.343127
lclavicle 7.62206e-15 1.4192e-14 0
lhumerus -59.5592 -45.7598 115.711
lradius 54.5104 0 0
lwrist 25.794 0 0
lhand 39.8145 30.5699 0
lfingers 7.12502 0 0
lthumb 62.3992 42.8612 0
rclavicle 7.62206e-15 1.4192e-14 0
rhumerus -12.068 -21.5986 -16.793
rradius 75.0166 0 0
rwrist -21.6095 0 0
rhand -49.4075 -57.8496 0
rfingers 7.12502 0 0
rthumb -21.8007 -580.226 0
209
root 4.74087 15.0541 -25.4895 7.37149 -1.01719 5.64346
lfemur 7.79889 -7.30202 2.66256
ltibia 4.66078 0 0
lfoot -34.9394 -13.4097 0
ltoes 54.1723 0 0
rfemur -31.8719 -20.1184 -8.13287
rtibia 51.7946 0 0
rfoot -27.1864 18.001 0
rtoes 59.8548 0 0
lowerback -2.04981 -1.7664 -0.989049
upperback -0.685472 -2.33262 -7.5112
thorax 0.162135 -1.18712 -7.29798
lowerneck -10.9345 0.762329 6.63559
upperneck 3.5069 -0.0550636 2.39615
head 3.07192 0.171257 -0.387754
lclavicle 4.51e-15 1.45184e-14 0
lhumerus -59.6085 -45.75 116.049
lradius 54.6831 0 0
lwrist 25.8287 0 0
lhand 38.9289 30.1054 0
lfingers 7.12502 0 0
lthumb 61.6101 42.9673 0
rclavicle 4.51e-15 1.45184e-14 0
rhumerus -10.8714 -25.0429 -16.4049
rradius 73.2614 0 0
rwrist -21.8937 0 0
rhand -51.1923 -60.025 0
rfingers 7.12502 0 0
rthumb -23.5642 -595.515 0
210
root 4.735 15.0473 -25.5165 7.51917 -0.770965 5.25284
lfemur 6.36119 -5.61863 2.38719
ltibia 6.48064 0 0
lfoot -34.8431 -12.0388 0
ltoes 51.3986 0 0
rfemur -32.1859 -20.4634 -7.55068
rtibia 51.8791 0 0
rfoot -27.1714 18.0786 0
rtoes 60.0328 0 0
lowerback -1.80598 -1.74559 -0.867237
upperback -0.684645 -2.31078 -7.19537
thorax 0.0397735 -1.17684 -7.0276
lowerneck -10.8678 0.808932 6.61796
upperneck 3.38694 0.0254651 2.23462
head 3.0179 0.201919 -0.431534
lclavicle 2.00052e-15 1.45677e-14 0
lhumerus -59.6286 -45.6887 116.408
lradius 54.9049 0 0
lwrist 25.8245 0 0
lhand 37.8762 29.5485 0
lfingers 7.12502 0 0
lthumb 60.6675 43.0564 0
rclavicle 2.00052e-15 1.45677e-14 0
rhumerus -9.8662 -28.0587 -16.3646
rradius 71.9158 0 0
rwrist -22.2914 0 0
rhand -51.9789 -61.783 0
rfingers 7.12502 0 0
rthumb -24.3914 -611.569 0
211
root 4.72652 15.0422 -25.545 7.70309 -0.491237 4.781
lfemur 4.68749 -3.76403 2.18034
ltibia 8.54457 0 0
lfoot -34.6162 -10.6571 0
ltoes 48.2181 0 0
rfemur -32.4355 -20.8402 -6.88321
rtibia 51.7854 0 0
rfoot -27.3336 18.1638 0
rtoes 60.2405 0 0
lowerback -1.55725 -1.71709 -0.719351
upperback -0.684689 -2.27746 -6.82404
thorax -0.0850889 -1.16073 -6.7149
lowerneck -10.8231 0.864097 6.56772
upperneck 3.25503 0.122515 2.05509
head 2.96236 0.239828 -0.474647
lclavicle 1.98785e-16 1.43125e-14 0
lhumerus -59.6189 -45.5717 116.787
lradius 55.1807 0 0
lwrist 25.7799 0 0
lhand 36.6442 28.8925 0
lfingers 7.12502 0 0
lthumb 59.5601 43.1265 0
rclavicle 1.98785e-16 1.43125e-14 0
rhumerus -9.06837 -30.5869 -16.6934
rradius 71.0267 0 0
rwrist -22.8175 0 0
rhand -51.6573 -63.0713 0
rfingers 7.12502 0 0
rthumb -24.1789 -628.433 0
212
root 4.71419 15.0387 -25.5737 7.90358 -0.234448 4.25369
lfemur 2.87591 -1.80727 2.05808
ltibia 10.7496 0 0
lfoot -34.2503 -9.2953 0
ltoes 44.6945 0 0
rfemur -32.6152 -21.2502 -6.1746
rtibia 51.5093 0 0
rfoot -27.6976 18.2359 0
rtoes 60.5723 0 0
lowerback -1.31663 -1.68694 -0.552468
upperback -0.683999 -2.24053 -6.42551
thorax -0.204961 -1.14276 -6.3856
lowerneck -10.8029 0.927523 6.4879
upperneck 3.11589 0.233988 1.87537
head 2.90798 0.284751 -0.512023
lclavicle -9.1534e-16 1.37536e-14 0
lhumerus -59.5767 -45.4195 117.16
lradius 55.4795 0 0
lwrist 25.6869 0 0
lhand 35.3525 28.2017 0
lfingers 7.12502 0 0
lthumb 58.3964 43.1796 0
rclavicle -9.1534e-16 1.37536e-14 0
rhumerus -8.53391 -32.4986 -17.4101
rradius 70.7614 0 0
rwrist -23.5577 0 0
rhand -50.2535 -63.917 0
rfingers 7.12502 0 0
rthumb -22.9479 -644.644 0
213
root 4.6979 15.0368 -25.6011 8.09847 -0.0422815 3.70263
lfemur 1.03216 0.178253 2.01953
ltibia 12.9844 0 0
lfoot -33.7485 -7.97793 0
ltoes 40.9318 0 0
rfemur -32.7247 -21.6842 -5.47291
rtibia 51.0737 0 0
rfoot -28.2495 18.2647 0
rtoes 61.0942 0 0
lowerback -1.09516 -1.662 -0.376313
upperback -0.680966 -2.20919 -6.02954
thorax -0.313336 -1.12755 -6.06526
lowerneck -10.8063 0.995302 6.38289
upperneck 2.9748 0.352861 1.71357
head 2.85718 0.333996 -0.53898
lclavicle -1.47075e-15 1.29285e-14 0
lhumerus -59.5006 -45.2549 117.503
lradius 55.7679 0 0
lwrist 25.5414 0 0
lhand 34.1242 27.5424 0
lfingers 7.12502 0 0
lthumb 57.2886 43.2195 0
rclavicle -1.47075e-15 1.29285e-14 0
rhumerus -8.29514 -33.7396 -18.4994
rradius 71.2034 0 0
rwrist -24.557 0 0
rhand -47.929 -64.3947 0
rfingers 7.12502 0 0
rthumb -20.8474 -658.817 0
214
root 4.67871 15.0368 -25.6272 8.28777 0.10217 3.13156
lfemur -0.84083 2.18576 2.05208
ltibia 15.2433 0 0
lfoot -33.1222 -6.70676 0
ltoes 36.9734 0 0
rfemur -32.7666 -22.1316 -4.77905
rtibia 50.4984 0 0
rfoot -28.9576 18.2463 0
rtoes 61.7695 0 0
lowerback -0.891302 -1.64209 -0.192752
upperback -0.67585 -2.1833 -5.63557
thorax -0.411118 -1.115 -5.75217
lowerneck -10.8308 1.0646 6.25364
upperneck 2.83249 0.475355 1.56843
head 2.80978 0.385628 -0.556282
lclavicle -1.52537e-15 1.18645e-14 0
lhumerus -59.3924 -45.077 117.816
lradius 56.0469 0 0
lwrist 25.348 0 0
lhand 32.9522 26.9108 0
lfingers 7.12502 0 0
lthumb 56.2302 43.2462 0
rclavicle -1.52537e-15 1.18645e-14 0
rhumerus -8.3324 -34.3634 -19.9313
rradius 72.2742 0 0
rwrist -25.7692 0 0
rhand -44.7773 -64.5231 0
rfingers 7.12502 0 0
rthumb -17.9648 -671.109 0
215
root 4.65765 15.0386 -25.6521 8.47148 0.215812 2.54424
lfemur -2.74014 4.20848 2.1431
ltibia 17.5206 0 0
lfoot -32.383 -5.48355 0
ltoes 32.8627 0 0
rfemur -32.7436 -22.5819 -4.09392
rtibia 49.8035 0 0
rfoot -29.7899 18.1769 0
rtoes 62.5618 0 0
lowerback -0.703551 -1.62702 -0.00365031
upperback -0.668911 -2.16273 -5.24303
thorax -0.499214 -1.10505 -5.44459
lowerneck -10.8737 1.13259 6.10109
upperneck 2.68967 0.597691 1.43868
head 2.76561 0.437713 -0.564695
lclavicle -1.13711e-15 1.05893e-14 0
lhumerus -59.2538 -44.8852 118.102
lradius 56.3176 0 0
lwrist 25.1111 0 0
lhand 31.8295 26.3032 0
lfingers 7.12502 0 0
lthumb 55.2149 43.2601 0
rclavicle -1.13711e-15 1.05893e-14 0
rhumerus -8.62602 -34.4235 -21.6756
rradius 73.8954 0 0
rwrist -27.1483 0 0
rhand -40.8915 -64.3211 0
rfingers 7.12502 0 0
rthumb -14.3877 -681.677 0
216
root 4.63577 15.0425 -25.6758 8.6496 0.315554 1.94442
lfemur -4.66282 6.23963 2.27996
ltibia 19.8105 0 0
lfoot -31.5421 -4.31007 0
ltoes 28.6431 0 0
rfemur -32.6584 -23.0247 -3.41844
rtibia 49.0089 0 0
rfoot -30.7145 18.0527 0
rtoes 63.4344 0 0
lowerback -0.530389 -1.61659 0.189126
upperback -0.66041 -2.14734 -4.85136
thorax -0.578527 -1.09762 -5.1408
lowerneck -10.9326 1.19642 5.92619
upperneck 2.54705 0.716092 1.32307
head 2.72449 0.488316 -0.564983
lclavicle -3.63909e-16 9.13049e-15 0
lhumerus -59.0864 -44.6786 118.363
lradius 56.581 0 0
lwrist 24.8351 0 0
lhand 30.7489 25.7158 0
lfingers 7.12502 0 0
lthumb 54.2363 43.2612 0
rclavicle -3.63909e-16 9.13049e-15 0
rhumerus -9.15633 -33.9734 -23.7024
rradius 75.9883 0 0
rwrist -28.6481 0 0
rhand -36.365 -63.8078 0
rfingers 7.12502 0 0
rthumb -10.2033 -690.68 0
217
root 4.61411 15.0486 -25.6982 8.82213 0.418302 1.33585
lfemur -6.60596 8.27244 2.45004
ltibia 22.1072 0 0
lfoot -30.611 -3.18809 0
ltoes 24.3578 0 0
rfemur -32.5138 -23.4495 -2.75352
rtibia 48.1346 0 0
rfoot -31.6998 17.8699 0
rtoes 64.3508 0 0
lowerback -0.370297 -1.61062 0.38371
upperback -0.650604 -2.13701 -4.45998
thorax -0.649963 -1.09264 -4.83908
lowerneck -11.0047 1.25328 5.72987
upperneck 2.40535 0.826778 1.22033
head 2.68624 0.535503 -0.55791
lclavicle 7.36319e-16 7.51558e-15 0
lhumerus -58.8918 -44.4566 118.6
lradius 56.8382 0 0
lwrist 24.5246 0 0
lhand 29.7035 25.1449 0
lfingers 7.12502 0 0
lthumb 53.2881 43.2499 0
rclavicle 7.36319e-16 7.51558e-15 0
rhumerus -9.90366 -33.0665 -25.9814
rradius 78.4745 0 0
rwrist -30.2224 0 0
rhand -31.2911 -63.0018 0
rfingers 7.12502 0 0
rthumb -5.49939 -698.273 0
